<svg xmlns="http://www.w3.org/2000/svg" viewBox="0 0 253.21 213.59"><defs><style>.cls-1{fill:#fff;}.cls-2{fill:#1e59a3;}.cls-3{fill:#d61f2e;}</style></defs><title>Hot Impact</title><g id="Layer_2" data-name="Layer 2"><g id="Layer_1-2" data-name="Layer 1"><path class="cls-1" d="M251.71,178.15a4.29,4.29,0,0,0-3.9-2.49H221.7v-15a4.26,4.26,0,0,0-1-2.77H221l5.09-.05a5.25,5.25,0,0,0,3.9-1.55,5.16,5.16,0,0,0,1.43-3.84c0-.24,0-.55,0-.87s0-.74,0-1.1q.06-23,.1-45.91c2.07,0,4.29,0,6.75,0l9.06,0h.55a5,5,0,0,0,5.27-5.31c0-2.94,0-5.94,0-8.84V86c0-1.84,0-3.67,0-5.51a5.07,5.07,0,0,0-1.43-3.77,4.94,4.94,0,0,0-3.63-1.44h-.78q-.57,0-1.14,0l-1.42,0h-30l-8.74,0c-3.42,0-6.84,0-10.26,0-5.54,0-10.08.06-14.3.17a5.28,5.28,0,0,0-4,1.74,5.2,5.2,0,0,0-1.21,4.06,4.91,4.91,0,0,1,0,.65c0,.2,0,.4,0,.6-.06,2.08-.1,4.22-.13,6.44l-1.1-2.43c-.53-1.2-1.09-2.43-1.69-3.65s-1.11-2.06-1.68-3c-.47-.77-.92-1.5-1.26-2.21-.54-1.08-1.08-2.15-1.63-3.22-1-2-2.07-4.09-3-6.14-.7-1.49-1.44-3-2.15-4.42s-1.51-3.06-2.23-4.59l-.44-.92a35.11,35.11,0,0,1-2.26-5.58c-.41-1.54-.82-3.1-1.22-4.65a31.06,31.06,0,0,1-.65-5.53c0-1-.11-2.09-.22-3.17a26.53,26.53,0,0,1,.33-5.78c.15-1.16.3-2.37.39-3.61a17,17,0,0,1,.27-1.74,20.6,20.6,0,0,0,.4-2.78,8.06,8.06,0,0,1,.3-1.32c.12-.42.25-.9.36-1.42s.31-1.34.49-2.06l.18-.69.11-.47c.29-1.16.56-2.26.9-3.23.22-.6.39-1.19.54-1.71a13.88,13.88,0,0,1,.61-1.8,19.24,19.24,0,0,0,1-2.5,13.15,13.15,0,0,1,.65-1.69l.05-.1a7.68,7.68,0,0,0,1.08-4.53A4.29,4.29,0,0,0,161,.12,4.36,4.36,0,0,0,160,0a4.28,4.28,0,0,0-3.59,1.94c-.55.84-1.12,1.65-1.72,2.51l-.76,1.11c-1.21,1.76-2.3,3.55-3.36,5.29L149.22,13c-2.17,3.47-4.1,7-5.86,10.39-.21.39-.43.78-.65,1.17a27,27,0,0,0-1.85,3.77c-.23.6-.5,1.22-.8,1.86a19.42,19.42,0,0,0-1-2.87,17.84,17.84,0,0,0-6.47-8c-.48-.34-1-.63-1.37-.89a7.1,7.1,0,0,1-1.48-1.07,11.49,11.49,0,0,1-1.19-2,8.67,8.67,0,0,0,.37-1.53,4.67,4.67,0,0,0,.66-3,5,5,0,0,0-2-3.41A4.29,4.29,0,0,0,125,6.62a3.91,3.91,0,0,0-.68.06,4.26,4.26,0,0,0-2.83,1.77,23.12,23.12,0,0,0-1.84,3.25c-.2.4-.39.79-.6,1.18A11.79,11.79,0,0,0,117.57,18a13.15,13.15,0,0,0,1.54,6.38,57.32,57.32,0,0,0,3.57,6.19c.58.91,1.13,1.77,1.65,2.64a7.35,7.35,0,0,1,1.08,2.41c0,.32,0,.64.08,1a16.47,16.47,0,0,1,.07,3.48c0,.14-.09.41-.16.68,0,.07,0,.16-.06.24a8,8,0,0,1-.2-.81c-.07-.4-.16-.8-.25-1.2a6.27,6.27,0,0,1-.26-1.77A4.7,4.7,0,0,0,121.84,32,4.3,4.3,0,0,0,116,34.38c-.14.37-.27.73-.4,1.09-.23.65-.45,1.26-.68,1.75a28.31,28.31,0,0,0-2.11,7.61,15.93,15.93,0,0,0,1.39,9.68c1.42,2.92,2.88,5.74,4.12,8.11a55.22,55.22,0,0,1,2.41,5.16,4.72,4.72,0,0,0,.26.55,10,10,0,0,0,.64,2.69,3.79,3.79,0,0,1,.16.48,5,5,0,0,1,0,2.8c-.08.29-.17.58-.26.88a23.79,23.79,0,0,1-.79,2.46,3.67,3.67,0,0,1-.9,1.43,36.27,36.27,0,0,1-3.48,2.72c-.55.41-1.11.81-1.65,1.22-.81.61-1.55,1.23-2.26,1.84-.47.4-.94.79-1.43,1.18a45.74,45.74,0,0,0-6.3,6.11,32,32,0,0,0-4.15,6.27V80.57c0-3.1-1.51-3.49.53-3.49h2.58A4.29,4.29,0,0,0,108,72.79V63.13H109a4.3,4.3,0,0,0,4.29-4.3V56.41A4.29,4.29,0,0,0,109,52.12h-13a4.25,4.25,0,0,0-2.51.81A13.21,13.21,0,0,0,88,51.85a12.42,12.42,0,0,0-10.86,6.24l-1.61-3.56A4.31,4.31,0,0,0,71.62,52H69.46a4.31,4.31,0,0,0-3.92,2.52L64.9,56a10.56,10.56,0,0,0-8.63-3.83H50a4.31,4.31,0,0,0-1.9.44,4.36,4.36,0,0,0-1.91-.44H43.84A4.31,4.31,0,0,0,40.27,54l-1.89,2.83L36.49,54a4.31,4.31,0,0,0-3.57-1.91H30.53a4.3,4.3,0,0,0-2,.48,4.23,4.23,0,0,0-2-.48H24a4.29,4.29,0,0,0-4.3,4.29V72.79a4.29,4.29,0,0,0,2.06,3.66,5.33,5.33,0,0,0-1.85,4.12c-.11,9.66-.1,19.36-.1,30.58v8.4c0,2.13,0,4.45,0,6.89,0,7.8,0,16.65.12,25.66,0,3.79,1.9,5.66,5.64,5.75,1.77.05,3.64.08,5.74.09a4.3,4.3,0,0,0-1,2.73v15H4.3A4.29,4.29,0,0,0,1,182.73l9.88,11.62L1,206.58a4.3,4.3,0,0,0,3.34,7h55a4.29,4.29,0,0,0,4.15-3.2,4.28,4.28,0,0,0,.83-2.53V197.79H187.83v10.07a4.22,4.22,0,0,0,.84,2.53,4.28,4.28,0,0,0,4.15,3.2h55a4.3,4.3,0,0,0,3.34-7l-9.94-12.23,9.87-11.62a4.28,4.28,0,0,0,.63-4.58M248,79.55h.11a1.08,1.08,0,0,1,.19,0,1.32,1.32,0,0,0-.3,0m.19,20.71-.24,0h0l.26,0M117.07,45.55c.19-1.1.38-2.21.65-3.29-.27,1.08-.46,2.19-.65,3.29M34.53,153.66h0m2.13-74.2h0m11.07.06a1.66,1.66,0,0,1,.22,0,1.89,1.89,0,0,0-.35,0h.13m0,74.1h0a1.85,1.85,0,0,0,.27,0,1.86,1.86,0,0,1-.26,0m53.07-41.33a9.07,9.07,0,0,1,.32-2.21,9.07,9.07,0,0,0-.32,2.21,2.06,2.06,0,0,1,0,.43,2.06,2.06,0,0,0,0-.43M83.5,79.4h0m-1.67.15Zm-3.17-.07h0M67.57,66.29h0Zm-15-1.4h3.45a5.66,5.66,0,0,0,.84,0,5.66,5.66,0,0,1-.84,0Zm-2.68,62.17c.6,0,1.2,0,1.81,0h-.4c-.47,0-.95,0-1.41,0m1.66,29.32A5.34,5.34,0,0,0,53,152.47c0-1.75,0-3.55,0-5.29,0-.88,0-1.77,0-2.66v-3.24c0-3.25,0-6.58,0-9.91,2.58-.05,5.26-.07,8.16-.07l6,0,.09,12.28c0,2.79,0,5.59.07,8.38a6.16,6.16,0,0,0,1.44,4.39Zm-1.37-50.66H70.42c-6.74,0-13.48,0-20.21,0m21.29-1h0q0-6.06.11-12.11-.06,6-.11,12.11m1.07-29.47a5.06,5.06,0,0,0-5.14,5.22q0,6.17-.11,12.34l-.09,8.61H53.05V99.55c0-6.18,0-12.57,0-18.84a5.5,5.5,0,0,0-1.2-3.63h.74a4.29,4.29,0,0,0,4.29-4.29V71.56l1-.11A4.29,4.29,0,0,0,62,77.08h2.67a4.29,4.29,0,0,0,3.92-2.53L69.3,73h2.39l.69,1.57a4.77,4.77,0,0,0,.42.73h-.23m6.73,78.35h0m17-73c0-.78-.34-1-1-1,.67,0,1,.26,1,1q0,35,0,70,0-35,0-70m2.88,75.81a4.19,4.19,0,0,0,.39-.45,4.79,4.79,0,0,0,.9-3.8,1.1,1.1,0,0,1,0-.18,9.81,9.81,0,0,0,.11-1.4q0-6.08,0-12.23c.27.51.55,1,.84,1.48a44.64,44.64,0,0,0,3.69,5.38,42.77,42.77,0,0,0,4.6,4.84,51.85,51.85,0,0,0,4.77,3.78,38.31,38.31,0,0,0,3.44,2.1l.85.48Zm22-114.31a12.92,12.92,0,0,0,1.41,3.15,12.92,12.92,0,0,1-1.41-3.15m3.6,37.17a9,9,0,0,1-.37.83,9,9,0,0,0,.37-.83c.12-.3.24-.61.34-.92-.1.31-.22.62-.34.92m5-38.62a12.26,12.26,0,0,0,.1-1.34,12.26,12.26,0,0,1-.1,1.34c0,.24-.08.48-.13.72.05-.24.1-.48.13-.72m-.59,3.07a.89.89,0,0,0,0-.22,6.11,6.11,0,0,1,.24-1.42,6.2,6.2,0,0,0-.24,1.42.89.89,0,0,1,0,.22m.12.56a.28.28,0,0,0,.2,0l-.05,0a.42.42,0,0,1-.15,0m12.21,113h0m9.65-34a10.86,10.86,0,0,1-2.33,4.25,10.6,10.6,0,0,1-4.28,3.1,11.6,11.6,0,0,1-3.84.65h-.1a9.47,9.47,0,0,1-2.69-.51l-.42-.13a9.52,9.52,0,0,1-6-4.72,11.68,11.68,0,0,0-.63-1l-.21-.31-.06-.18c-.66-1.95-1.27-3.79-1.1-5a3.86,3.86,0,0,0,0-.6c0-.36,0-.69,0-1,0-.49,0-1,0-1.44a5.67,5.67,0,0,0,.35-1.24,10.69,10.69,0,0,1,2.95-5.64,8.52,8.52,0,0,1,3.2-2.28,27.25,27.25,0,0,1,4.6-1.06,3.79,3.79,0,0,1,.49,0,7.86,7.86,0,0,1,2.15.39,10.76,10.76,0,0,1,5.77,3.79,11.83,11.83,0,0,1,2.08,4,17.34,17.34,0,0,1,.76,5.15,19.42,19.42,0,0,1-.73,3.88m44.64-43.81h0m-14.42,20.84h0Zm-.84-17.8c0-.31,0-.61,0-.91,0,.3,0,.6,0,.91-.08,2.82-.12,5.65-.14,8.48,0-2.83.06-5.66.14-8.48m-2.8,20.23c.36.85.75,1.7,1.11,2.55-.36-.85-.75-1.7-1.11-2.55-.19-.43-.37-.87-.55-1.31.18.44.36.88.55,1.31m-15.46,53.68c.67-.35,1.31-.71,1.93-1.08.86-.51,1.62-1.05,2.36-1.56l1-.7a41.5,41.5,0,0,0,5.3-4.31,35.05,35.05,0,0,0,3.8-4.5c.26-.36.52-.71.79-1.06a40,40,0,0,0,6.26-12.63,35.29,35.29,0,0,0,1.51-7.85A37.53,37.53,0,0,0,185,112c-.07-.33-.12-.72-.18-1.13a20.77,20.77,0,0,0-.44-2.43l-.07-.28c-.31-1.17-.62-2.37-1.06-3.6h14.8l0,47.45a6,6,0,0,0,1.42,4.36Zm67.08-56.08h0m-16.14,53.35h0m15-74.15h0m7.32,114.79,12.18,15-12.18-15L247.81,180Z"/><path class="cls-2" d="M217.4,193.5H34.63V160.67H217.4Zm-25.27,1.59v12.77l23.35-12.77ZM247.81,180H219.07v15.14h-.28l-26,14.2h55l-12.18-15ZM60,207.86V195.09H36.63ZM33.32,195.09H33V180H4.3l12.18,14.34-12.18,15h55l-26-14.2Z"/><path class="cls-3" d="M120,35.9c.34.16.41.33.38.47-.31,1.58.22,3.09.5,4.59a12.43,12.43,0,0,0,1.67,4.26,26.31,26.31,0,0,0,5.65,6.72,59,59,0,0,1,5.08,4.65,36.62,36.62,0,0,1,3.85,5.55c.4.6.72,1.25,1.12,1.85.12.19.29.49.59.39s.18-.43.19-.67c0-3.53.06-7.06,0-10.58a64.75,64.75,0,0,1,.59-7.77,19.44,19.44,0,0,1,.93-5.35c.77-1.87,1.41-3.79,2.23-5.65.68-1.52,1.45-3,2-4.55a38.61,38.61,0,0,1,2.27-4.44c1.81-3.43,3.66-6.84,5.71-10.13,1.52-2.42,2.95-4.89,4.57-7.25.84-1.22,1.71-2.44,2.53-3.69a3.79,3.79,0,0,1-.66,2.18c-.73,1.39-1,2.94-1.69,4.34a39.24,39.24,0,0,0-1.32,3.92c-.47,1.32-.8,2.72-1.14,4.1-.24,1-.5,1.94-.7,2.9a23.39,23.39,0,0,0-.74,3.34c-.1,1.51-.56,3-.67,4.5-.24,3.38-1,6.77-.71,10.13.3,3.11.21,6.29,1,9.33.4,1.57.82,3.15,1.24,4.71A43.54,43.54,0,0,0,157.5,61c1.42,3,3,6,4.39,9s3.14,6.29,4.7,9.43c.88,1.77,2.06,3.4,2.93,5.19,1.13,2.3,2.11,4.68,3.23,7,.95,2,1.81,4,2.78,5.91.85,1.69,1.51,3.48,2.26,5.22.36.85.75,1.7,1.11,2.55a30.3,30.3,0,0,1,1.33,4.28c.28,1.11.33,2.24.56,3.33a33.94,33.94,0,0,1,.23,9.49,31.86,31.86,0,0,1-1.33,6.91,35.88,35.88,0,0,1-5.58,11.31,42.51,42.51,0,0,1-4.13,5.05,36.63,36.63,0,0,1-4.73,3.85c-1.06.71-2.1,1.49-3.2,2.15a37.35,37.35,0,0,1-5.47,2.66,38.89,38.89,0,0,1-4.44,1.55c-1.09.3-2.19.56-3.31.79-4.36.9-8.77.6-13.17.49a36.93,36.93,0,0,1-4.28-.77,36.07,36.07,0,0,1-10.09-3.5c-1.44-.84-2.92-1.59-4.29-2.55a45.56,45.56,0,0,1-4.37-3.47,37.7,37.7,0,0,1-4.14-4.34,42.84,42.84,0,0,1-3.33-4.88,35.73,35.73,0,0,1-2.1-4.08c-.53-1.18-.75-2.5-1.3-3.67-.47-1-.25-2.12-.84-3a.29.29,0,0,1,0-.18c.19-1.54-.64-2.95-.57-4.48,0-.91-.2-1.86-.14-2.74.14-2.09-.18-4.23.54-6.28a2.36,2.36,0,0,0,.09-.84,22.24,22.24,0,0,1,.86-4.37c.28-1.36.88-2.6,1.19-3.94a15.2,15.2,0,0,1,1.56-3.51A28.52,28.52,0,0,1,108,94.94a42.36,42.36,0,0,1,5.73-5.55c1.21-1,2.35-2,3.59-3,1.84-1.39,3.77-2.65,5.47-4.22a8,8,0,0,0,2-3c.49-1.21.82-2.47,1.19-3.72a9.15,9.15,0,0,0,0-5.11,7.88,7.88,0,0,1-.67-2.89c.06-.51-.38-.9-.57-1.35-.76-1.89-1.64-3.73-2.58-5.54-1.39-2.65-2.76-5.31-4.07-8a11.58,11.58,0,0,1-1-7.08,24.13,24.13,0,0,1,1.75-6.48c.48-1,.81-2.08,1.22-3.17m5.25,82.86c-.33,2.32.54,4.78,1.37,7.26a11.74,11.74,0,0,0,1.12,1.93,14.26,14.26,0,0,0,6,5.78,16.36,16.36,0,0,0,2.95,1.1,13.21,13.21,0,0,0,4.16.7,15.57,15.57,0,0,0,5.32-.94,15,15,0,0,0,6-4.35,15.12,15.12,0,0,0,3.18-5.92,22.52,22.52,0,0,0,.87-4.8,21.67,21.67,0,0,0-.9-6.43,16.49,16.49,0,0,0-2.76-5.39,15.11,15.11,0,0,0-8-5.36,10.3,10.3,0,0,0-4.61-.48,30.65,30.65,0,0,0-5.36,1.26,12.72,12.72,0,0,0-4.84,3.37,14.79,14.79,0,0,0-4.07,7.91c-.08.48-.48.86-.43,1.43.07.85,0,1.71,0,2.93"/><path class="cls-3" d="M24.12,119.55c0-15,0-27,.09-38.93,0-.81.36-1.07,1.09-1.08,7.18-.08,14.36-.14,21.54,0l.76,0c.81,0,1.17.24,1.17,1.16,0,7.85,0,15.7,0,23.55,0,1.18.29,1.48,1.44,1.48,6.74,0,13.48,0,20.22,0,.76,0,1.07-.18,1.07-1,.07-8.07.18-16.15.24-24.22,0-.68.27-1,.87-1,3.07,0,6.15-.16,9.23,0,.56,0,1.12-.15,1.68-.15,3.94,0,7.88.08,11.82.13.67,0,1,.26,1,1q0,35,0,70a8.63,8.63,0,0,0-.06,2.33c.09.36-.17.65-.62.65s-.83.07-1.24.07H73.35c-1.62,0-1.66-.07-1.67-1.66-.06-7.88-.14-15.76-.19-23.64,0-.86-.07-1.24-1.18-1.25-6.19-.08-12.39-.1-18.58,0-.61,0-1.21,0-1.81,0-.85-.06-1.18.25-1.17,1.15,0,5.44,0,10.87,0,16.31,0,2.67,0,5.34,0,8,0,.8-.29,1.1-1,1.1-7.34,0-14.68.12-22-.06-1.45,0-1.44-.08-1.46-1.52-.16-11.86-.1-23.71-.11-32.49"/><path class="cls-3" d="M214.85,79.5h29.94c1.08,0,2.17.09,3.24,0,.72,0,.88.25.88.88,0,2.39,0,4.77,0,7.15,0,3.92,0,7.83,0,11.74,0,.75-.18,1-.95,1-6.07,0-12.14-.06-18.22,0-2.82,0-2.45-.45-2.45,2.49q-.06,23.85-.1,47.69c0,.69-.08,1.39-.06,2.09s-.35,1-1,1c-3.94,0-7.88.08-11.83.09-3.43,0-6.86,0-10.3-.06-1.56,0-1.57,0-1.57-1.57l0-50.26c0-1.14-.32-1.48-1.47-1.48H181.43c-.58,0-1,0-1-.84-.05-5.65,0-11.31.12-17a13.67,13.67,0,0,0,0-1.81c-.08-.84.34-1,1.06-1.06,11.07-.29,22.13-.1,33.19-.09"/><path class="cls-3" d="M125,10.92c.31.23.37.55.23.72-.62.74-.45,1.73-.83,2.57a3.33,3.33,0,0,0,.13,2.73A15.22,15.22,0,0,0,126.38,20c1,1.29,2.48,1.93,3.75,2.83a13.61,13.61,0,0,1,5,6.07,10.37,10.37,0,0,1,1,4,9.32,9.32,0,0,1-1.56,4.37,50.83,50.83,0,0,1-4.5,6.5c-.17.24-.32.67-.69.51s-.09-.51-.09-.78a26.54,26.54,0,0,1,.56-2.85,26.11,26.11,0,0,0-.12-5.31A10,10,0,0,0,128,31c-1.68-2.83-3.62-5.5-5-8.48a8.94,8.94,0,0,1-1.14-4.34,7.63,7.63,0,0,1,1-3.28,38.34,38.34,0,0,1,2.18-4"/><path class="cls-2" d="M24,56.41h2.55V72.79H24ZM38.38,64.6l-5.46-8.19H30.53V72.79H33V61.08l5.07,7.43h.51l5.07-7.45V72.79h2.55V56.41H43.84ZM62.5,61.75c0,3.33-2.62,5.54-6.52,5.54H52.6v5.5H50V56.41h6.23c3.78,0,6.23,2.1,6.23,5.34m-9.9,3.14h3.45c2.35,0,3.87-1.19,3.87-3s-1.37-3-3.78-3H52.6Zm19-8.59,7.45,16.49H76.31l-1.83-4.12h-8l-1.85,4.12H62L69.46,56.3Zm-1.11,3.42-2.94,6.57h5.87ZM92.74,68.5A6.42,6.42,0,0,1,88,70.63a5.79,5.79,0,0,1-5.63-6.08,5.68,5.68,0,0,1,5.63-6,6.28,6.28,0,0,1,4.62,2l.3.28L94.64,59l-.29-.27A8.47,8.47,0,0,0,88,56.15a8.27,8.27,0,0,0-8.27,8.45v0a8.13,8.13,0,0,0,8.21,8.41,8.52,8.52,0,0,0,6.51-2.85l.28-.29L93,68.23Zm3.19-12.09v2.42h5.23v14h2.57v-14H109V56.41Z"/><path class="cls-1" d="M53.08,167.51H45.62V186.9h3.6v-6.28h3.53c4.66,0,7.79-2.66,7.79-6.67s-2.93-6.44-7.46-6.44m-.26,9.69h-3.6V171h3.71c1.49,0,4,.39,4,3.12,0,1.89-1.6,3.12-4.09,3.12"/><path class="cls-1" d="M78.49,173.6a5.7,5.7,0,0,0-1.61-4.08,7.85,7.85,0,0,0-5.62-2H62.81V186.9h3.6V180H70.3l5.17,6.92h4.46l-5.71-7.59a5.77,5.77,0,0,0,4.27-5.71M66.41,171h4.7c1.41,0,3.76.35,3.76,2.76,0,2.12-2,2.87-3.78,2.87H66.41Z"/><path class="cls-1" d="M90.52,167.21a9.84,9.84,0,0,0-9.9,10v0a9.68,9.68,0,0,0,9.85,10,9.85,9.85,0,0,0,9.89-10.05,9.67,9.67,0,0,0-9.84-9.95m0,16.55a6.57,6.57,0,1,1,6.17-6.55v0a6.2,6.2,0,0,1-6.17,6.5"/><path class="cls-1" d="M111,175.46c-3.9-.83-4.2-1.64-4.2-2.73s1.23-2.08,3-2.08a7,7,0,0,1,4.63,1.76l.64.52,2.13-2.83-.6-.48a10.16,10.16,0,0,0-6.75-2.36c-3.79,0-6.65,2.42-6.65,5.7,0,3.94,3.17,5.17,6.61,5.92,4,.84,4,1.77,4,2.65,0,1.33-1.28,2.23-3.18,2.23a7.7,7.7,0,0,1-5.57-2.31l-.61-.55-2.27,2.69.57.52a11.15,11.15,0,0,0,7.81,3c4,0,6.87-2.4,6.87-5.88,0-3.92-3.43-5.16-6.43-5.82"/><path class="cls-1" d="M128.56,167.51h-7.45V186.9h3.6v-6.28h3.52c4.66,0,7.79-2.66,7.79-6.67s-2.92-6.44-7.46-6.44m-.25,9.69h-3.6V171h3.7c1.49,0,4,.39,4,3.12,0,1.89-1.61,3.12-4.09,3.12"/><polygon class="cls-1" points="141.9 178.84 151.61 178.84 151.61 175.42 141.9 175.42 141.9 170.93 152.76 170.93 152.76 167.51 138.3 167.51 138.3 186.9 152.88 186.9 152.88 183.48 141.9 183.48 141.9 178.84"/><path class="cls-1" d="M169.72,181.41a6.91,6.91,0,0,1-5.19,2.35c-3.48,0-6.1-2.82-6.1-6.6a6.18,6.18,0,0,1,6.1-6.51,6.9,6.9,0,0,1,5,2.23l.59.55,2.45-2.64-.57-.55a10,10,0,0,0-7.49-3,9.8,9.8,0,0,0-9.8,10v0a9.62,9.62,0,0,0,9.73,9.94,10,10,0,0,0,7.68-3.36l.56-.56-2.44-2.4Z"/><polygon class="cls-1" points="174.26 170.96 180.24 170.96 180.24 186.9 183.86 186.9 183.86 170.96 189.84 170.96 189.84 167.51 174.26 167.51 174.26 170.96"/><path class="cls-1" d="M200.2,175.46c-3.91-.83-4.21-1.64-4.21-2.73s1.23-2.08,3-2.08a7,7,0,0,1,4.63,1.76l.64.52,2.13-2.83-.6-.48a10.12,10.12,0,0,0-6.75-2.36c-3.79,0-6.64,2.42-6.64,5.7,0,3.94,3.17,5.17,6.6,5.92,4,.84,4,1.77,4,2.65,0,1.33-1.27,2.23-3.17,2.23a7.68,7.68,0,0,1-5.57-2.31l-.61-.55-2.28,2.69.58.52a11.14,11.14,0,0,0,7.8,3c4.05,0,6.87-2.4,6.87-5.88,0-3.92-3.43-5.16-6.42-5.82"/></g></g></svg>