<svg xmlns="http://www.w3.org/2000/svg" viewBox="0 0 209.63 63.37"><defs><style>.cls-1{fill:#fff;}</style></defs><g id="Layer_2" data-name="Layer 2"><g id="Layer_1-2" data-name="Layer 1"><path class="cls-1" d="M37.51,38.92c.21-.07.34,0,.38.13a.5.5,0,0,1,0,.4.28.28,0,0,1-.29.06.67.67,0,0,0-.43.06,8.54,8.54,0,0,0-1.88,1.19c-.7.56-1.42,1.19-2.17,1.91s-1.51,1.47-2.28,2.26-1.5,1.54-2.2,2.24-1.43,1.42-2.23,2.24S24.75,51,23.92,51.83,22.24,53.33,21.4,54A12.08,12.08,0,0,1,19,55.51a3.3,3.3,0,0,1-1.3.34,1.36,1.36,0,0,1-.91-.28,1.14,1.14,0,0,1-.4-.78,2.23,2.23,0,0,1,.23-1.17c.11-.26.24-.52.39-.8a6.92,6.92,0,0,1,.52-.85Q16.2,53.1,15,54.07a11.83,11.83,0,0,1-2.25,1.44,3.28,3.28,0,0,1-1.32.33,1.62,1.62,0,0,1-.94-.29,1.17,1.17,0,0,1-.43-.78,2,2,0,0,1,.25-1.18A8.81,8.81,0,0,1,11,52.28c.34-.51.73-1.06,1.17-1.64s.93-1.19,1.46-1.81,1.08-1.24,1.63-1.85,1.11-1.17,1.66-1.7,1.06-1,1.56-1.43a5.2,5.2,0,0,1-2-.18A10.74,10.74,0,0,1,14.71,43a17.47,17.47,0,0,1-1.55-.88,8.56,8.56,0,0,0-1.43-.75,3.53,3.53,0,0,0-1.41-.27,2.62,2.62,0,0,0-1.47.53,4.6,4.6,0,0,0-1,1,3.61,3.61,0,0,0-.63,1.33,2.76,2.76,0,0,0,0,1.45,2.94,2.94,0,0,0,1,1.4l.17.09.19.1c.06.06,0,.13-.05.21a.2.2,0,0,1-.29,0A3.81,3.81,0,0,1,7.1,45.7a3.42,3.42,0,0,1-.25-1.61,3.3,3.3,0,0,1,.57-1.5A4.23,4.23,0,0,1,8.71,41.4a4.7,4.7,0,0,1,2-.74,4,4,0,0,1,1.67.19,5.79,5.79,0,0,1,1.49.75c.47.33.95.65,1.46,1a8.42,8.42,0,0,0,1.6.77,4.3,4.3,0,0,0,1.89.2A8.21,8.21,0,0,1,20,42.7a2.51,2.51,0,0,1,.83-.35.81.81,0,0,1,.67.12.29.29,0,0,1,0,.41,1.5,1.5,0,0,1-.72.48c-.2.07-.4.14-.6.19a5.84,5.84,0,0,1-.66.15c-.42.39-.91.86-1.45,1.41S17,46.25,16.38,46.88s-1.14,1.28-1.71,1.95-1.11,1.31-1.59,1.93S12.17,52,11.8,52.52A8.78,8.78,0,0,0,11,53.93a1.31,1.31,0,0,0-.11.72.66.66,0,0,0,.27.45,1.11,1.11,0,0,0,.59.17,2.23,2.23,0,0,0,.81-.14,5.08,5.08,0,0,0,1.1-.55c.42-.26.87-.59,1.35-1s1-.8,1.54-1.26L18.18,51c.46-.63,1-1.24,1.51-1.85a22.91,22.91,0,0,1,1.62-1.64,11,11,0,0,1,1.56-1.21,3.45,3.45,0,0,1,1.31-.56,1.5,1.5,0,0,1,.3,0,.92.92,0,0,1,.25.08.38.38,0,0,1,.14.19.47.47,0,0,1-.08.32,2.07,2.07,0,0,1-.39.5c-.19.18-.39.37-.61.56s-.42.37-.62.52-.34.27-.42.34c-.49.38-1,.74-1.54,1.08s-1,.7-1.53,1.06q-.67.93-1.29,1.83a9.82,9.82,0,0,0-.95,1.69c-.23.56-.21,1,.09,1.18a1.37,1.37,0,0,0,1.3,0,6,6,0,0,0,1.46-.75A19.55,19.55,0,0,0,22,53.13c.58-.48,1.18-1,1.78-1.56s1.18-1.12,1.74-1.68l1.58-1.6c.49-.51.92-.94,1.29-1.31.76-.76,1.52-1.54,2.28-2.37s1.54-1.6,2.31-2.35a25.9,25.9,0,0,1,2.31-2A9.07,9.07,0,0,1,37.51,38.92ZM21,42.6a1.31,1.31,0,0,0-.46.22,7.73,7.73,0,0,0-.7.56l.45-.12.42-.13c.4-.15.61-.29.62-.41S21.21,42.56,21,42.6ZM24.37,46a2.62,2.62,0,0,0-.79.38,10,10,0,0,0-1,.81q-.56.49-1.17,1.14A17.79,17.79,0,0,0,20.2,49.7c.37-.27.76-.53,1.17-.79s.8-.53,1.17-.81l.48-.38c.2-.15.4-.32.6-.49s.4-.36.57-.53.31-.33.41-.45.08-.19,0-.24A.31.31,0,0,0,24.37,46Z"/><path class="cls-1" d="M28.56,52.2c.07-.05.12-.06.15,0s0,.09-.07.13a.18.18,0,0,1-.05.07.22.22,0,0,0-.05.08l-.94.8c-.34.29-.7.59-1.07.88s-.75.58-1.14.85a7.06,7.06,0,0,1-1.1.67,2.09,2.09,0,0,1-1,.26.61.61,0,0,1-.5-.25.81.81,0,0,1-.08-.57,1.47,1.47,0,0,1,.28-.66c.23-.31.52-.67.87-1.09s.72-.83,1.1-1.25l1.14-1.2c.37-.38.68-.7.94-.95l1.13,0-1,1c-.43.44-.87.9-1.32,1.39s-.89,1-1.3,1.45a10,10,0,0,0-.9,1.18,1.25,1.25,0,0,0-.19.43c0,.1,0,.16.07.18a.41.41,0,0,0,.27,0,1.42,1.42,0,0,0,.39-.14,7.34,7.34,0,0,0,1.08-.63c.4-.27.81-.56,1.21-.87s.77-.61,1.11-.9l.81-.7.08-.06Zm.74-4.86a.53.53,0,0,1,.54.55.52.52,0,0,1-.15.38.55.55,0,0,1-.39.14.52.52,0,0,1-.39-.14.49.49,0,0,1-.16-.38.55.55,0,0,1,.55-.55Z"/><path class="cls-1" d="M36.34,52.18s0,.09-.05.13l-.13.15-.93.8c-.33.29-.69.59-1.06.88s-.75.58-1.14.85a6.75,6.75,0,0,1-1.12.67,2.09,2.09,0,0,1-1,.26.57.57,0,0,1-.48-.25.81.81,0,0,1-.09-.57,1.49,1.49,0,0,1,.29-.66,7.53,7.53,0,0,1,.72-.94l.77-.84.75-.82c.24-.28.48-.57.7-.88a1.21,1.21,0,0,0,.22-.42c0-.1,0-.16-.06-.19a.5.5,0,0,0-.28,0,1.93,1.93,0,0,0-.42.12A7.62,7.62,0,0,0,32,51c-.43.25-.86.52-1.3.82s-.88.62-1.29.93-.75.6-1,.85L26.22,56h-1l5.39-6h1l-2.42,2.74c.56-.44,1.19-.89,1.88-1.35a12.88,12.88,0,0,1,2-1.11,2,2,0,0,1,1-.2.62.62,0,0,1,.48.28.82.82,0,0,1,0,.57,1.87,1.87,0,0,1-.32.65,18,18,0,0,1-1.5,1.66A9.48,9.48,0,0,0,31.3,55a1,1,0,0,0-.2.43c0,.1,0,.16.08.18a.44.44,0,0,0,.28,0,1.7,1.7,0,0,0,.39-.14,7.86,7.86,0,0,0,1.07-.63c.41-.27.81-.56,1.21-.87s.77-.61,1.12-.9l.81-.7.14-.13C36.26,52.15,36.3,52.14,36.34,52.18Z"/><path class="cls-1" d="M41.57,52.2c.07-.05.12-.06.16,0a.09.09,0,0,1,0,.13l-.13.11c-.32.29-.68.61-1.07.94s-.81.67-1.23,1a12.56,12.56,0,0,1-1.3.85,5.3,5.3,0,0,1-1.28.57,3.85,3.85,0,0,1-1,.16,1.18,1.18,0,0,1-.74-.18.75.75,0,0,1-.29-.63,2.78,2.78,0,0,1,.33-1.2,7,7,0,0,1,.84-1.29A10.72,10.72,0,0,1,37,51.35a8.87,8.87,0,0,1,1.26-1A2.65,2.65,0,0,1,39.38,50a1,1,0,0,1,1,.38.94.94,0,0,1,0,.91,1.75,1.75,0,0,1-.64.71,5.06,5.06,0,0,1-1.05.58,6.44,6.44,0,0,1-1.18.37,3.86,3.86,0,0,1-1,.1c-.1.14-.24.35-.41.62a4.61,4.61,0,0,0-.43.77,1.8,1.8,0,0,0-.21.71.47.47,0,0,0,.13.38.61.61,0,0,0,.4.11,2.81,2.81,0,0,0,.56-.06A5.5,5.5,0,0,0,37.86,55a12.68,12.68,0,0,0,1.31-.85c.44-.31.85-.64,1.24-1s.75-.63,1.08-.91l0,0S41.54,52.23,41.57,52.2Zm-2-1.64a2.89,2.89,0,0,0-.72.39,9.43,9.43,0,0,0-.82.63c-.28.23-.54.47-.78.7s-.44.42-.58.56a3.18,3.18,0,0,0,.87-.11,6.47,6.47,0,0,0,1.13-.37,5.47,5.47,0,0,0,1-.55,1.27,1.27,0,0,0,.56-.66.51.51,0,0,0-.06-.51C40.11,50.49,39.9,50.46,39.59,50.56Z"/><path class="cls-1" d="M45.82,52.2c.07-.05.12-.06.15,0s0,.09,0,.13l-.06.06-.09.07a3,3,0,0,1-1.2.59c-.53.15-1.1.29-1.7.42A11.86,11.86,0,0,1,42,54.78,5.64,5.64,0,0,1,40.79,56a1.42,1.42,0,0,1-1.09.29,1.09,1.09,0,0,1-.71-.48,1.18,1.18,0,0,1-.13-.84,1.2,1.2,0,0,1,.63-.82,2.88,2.88,0,0,1,1-.35c.43-.07.9-.16,1.39-.26.31-.49.57-1,.8-1.42a12.49,12.49,0,0,1,.73-1.3l-.52.44-.57.48-.5.44-.3.29,0,0c-.06,0-.1,0-.12,0a.11.11,0,0,1,0-.12s0,0,.07,0l.67-.62c.31-.29.66-.59,1-.9s.78-.58,1.18-.83a2.66,2.66,0,0,1,1.08-.41v.13a2.35,2.35,0,0,0-.81.56,4.43,4.43,0,0,0-.59.82c-.17.31-.34.66-.5,1s-.36.77-.58,1.19a15.64,15.64,0,0,0,1.63-.39,2.77,2.77,0,0,0,1.13-.58l.06-.05A.17.17,0,0,0,45.82,52.2Zm-5.55,3.25a6.83,6.83,0,0,0,.85-.85,7,7,0,0,0,.68-.92c-.45.1-.87.18-1.28.24a2.2,2.2,0,0,0-1,.33,1.12,1.12,0,0,0-.53.62.87.87,0,0,0,0,.62.48.48,0,0,0,.44.29A1.05,1.05,0,0,0,40.27,55.45Z"/><path class="cls-1" d="M58.69,52.2c.05-.05.1-.06.12,0a.09.09,0,0,1,0,.13l-.5.4a4.18,4.18,0,0,1-.63.4,2,2,0,0,1-.68.2.82.82,0,0,1-.61-.2,11.41,11.41,0,0,1-1.17,1.25A7.72,7.72,0,0,1,54,55.3a4,4,0,0,1-.91.41,2.16,2.16,0,0,1-.91.11.74.74,0,0,1-.57-.39,1.43,1.43,0,0,1,.07-1.08,5,5,0,0,1,.62-1.18,11.26,11.26,0,0,1,1-1.31,9.26,9.26,0,0,1,1.24-1.13,3.35,3.35,0,0,1,1.23-.61,1.71,1.71,0,0,1,.78,0,1,1,0,0,1,.53.33.94.94,0,0,1,.22.61,1.73,1.73,0,0,1-.19.83,1.08,1.08,0,0,0-.17.34.34.34,0,0,1,0,.22.54.54,0,0,1-.14.22.35.35,0,0,0,.34.27,1.35,1.35,0,0,0,.53-.12,3.5,3.5,0,0,0,.56-.32Zm-2.36,0a.59.59,0,0,1,.32-.26.33.33,0,0,1,.29.07c0-.05,0-.09,0-.14l0-.12c.2-.46.2-.79,0-1s-.51-.22-1-.07a3.62,3.62,0,0,0-1,.65A12.12,12.12,0,0,0,53,53.68a3.81,3.81,0,0,0-.54,1,.72.72,0,0,0,0,.62.44.44,0,0,0,.36.19,1.29,1.29,0,0,0,.53-.09,3.56,3.56,0,0,0,.52-.24,4.16,4.16,0,0,0,.56-.39c.21-.16.43-.34.65-.53s.43-.41.64-.63.41-.45.59-.68A.6.6,0,0,1,56.33,52.25Z"/><path class="cls-1" d="M63.7,46.63a2.24,2.24,0,0,1,1.06-.42,1,1,0,0,1,.75.2.77.77,0,0,1,.17.72A2.37,2.37,0,0,1,65,48.25a10.27,10.27,0,0,1-1.17,1c-.44.35-.89.69-1.35,1s-.93.63-1.4.93-.91.56-1.3.82l-.63.87-.65.9a6,6,0,0,0,1.47,0,6.8,6.8,0,0,0,1.37-.29A7,7,0,0,0,62.52,53a6.67,6.67,0,0,0,1-.71l.13-.13c.07-.05.12-.06.15,0s0,.09-.05.13l-.14.15a7.68,7.68,0,0,1-1,.69,6.11,6.11,0,0,1-1.24.57,7.67,7.67,0,0,1-1.43.34,6.52,6.52,0,0,1-1.53,0c0,.42,0,1-.06,1.7s-.14,1.47-.27,2.26a19.06,19.06,0,0,1-.53,2.29,7.13,7.13,0,0,1-.81,1.88,2.49,2.49,0,0,1-1.16,1,1.6,1.6,0,0,1-1.21,0,1.41,1.41,0,0,1-.76-.93,2.93,2.93,0,0,1,.18-1.88,16.31,16.31,0,0,1,1-2.28c.45-.85,1-1.74,1.55-2.67s1.21-1.86,1.88-2.79,1.33-1.8,2-2.6,1.28-1.51,1.87-2.13A9.47,9.47,0,0,1,63.7,46.63ZM56.39,62.18a5.85,5.85,0,0,0,.88-1.77,18.2,18.2,0,0,0,.56-2.26,18.77,18.77,0,0,0,.31-2.24c.06-.72.08-1.3.08-1.75-.44.63-.87,1.27-1.27,1.91s-.77,1.25-1.11,1.84-.65,1.14-.91,1.65a12.77,12.77,0,0,0-.6,1.36,2.47,2.47,0,0,0-.17,1.35.94.94,0,0,0,.49.67,1,1,0,0,0,.84,0A2.17,2.17,0,0,0,56.39,62.18ZM64.84,48.1a2.2,2.2,0,0,0,.56-.81c.06-.2,0-.35-.07-.42a.59.59,0,0,0-.52,0,2.17,2.17,0,0,0-.75.39,5.27,5.27,0,0,0-.85.7c-.3.3-.63.65-1,1s-.72.82-1.1,1.29-.76,1-1.14,1.48L61.2,51c.43-.28.86-.57,1.29-.88s.84-.63,1.25-1A13.74,13.74,0,0,0,64.84,48.1Z"/><path class="cls-1" d="M87.68,40.46a1.24,1.24,0,0,1,.78-.1.34.34,0,0,1,.24.29.51.51,0,0,1-.12.36c-.08.12-.17.17-.27.14a2.94,2.94,0,0,0-.5-.1,1.16,1.16,0,0,0-.53,0,6.32,6.32,0,0,0-1.37.55,12.37,12.37,0,0,0-1.49,1l.09.11a.93.93,0,0,0,.1.1A7.16,7.16,0,0,1,85.3,46a10.84,10.84,0,0,1-.65,3.55,14.06,14.06,0,0,1-4.59,6.3,12,12,0,0,1-3.55,1.88,10.18,10.18,0,0,1-4.14.47A6.85,6.85,0,0,1,71.24,58a7,7,0,0,1-1.08-.39,13.28,13.28,0,0,1-2,1.61,4,4,0,0,1-1.58.71.25.25,0,0,1-.22,0,.38.38,0,0,1-.15-.16.36.36,0,0,1-.05-.21.22.22,0,0,1,.16-.18,1.13,1.13,0,0,1,.51-.12,2.18,2.18,0,0,0,.52-.07,3.24,3.24,0,0,0,1.13-.59,11,11,0,0,0,1.25-1.13,7,7,0,0,1-1.6-1.09,5.44,5.44,0,0,1-1.13-1.48c0-.06,0-.13.11-.2s.18-.08.22,0a.2.2,0,0,1,0,.1.14.14,0,0,0,0,.11,3.74,3.74,0,0,0,1.08,1.4,5.51,5.51,0,0,0,1.6.89c.53-.57,1.09-1.24,1.69-2s1.23-1.57,1.91-2.42S75,51,75.78,50.08s1.53-1.82,2.36-2.71,1.7-1.75,2.6-2.57a25.85,25.85,0,0,1,2.88-2.24,4.57,4.57,0,0,0-1.07-1.08,4.85,4.85,0,0,0-1.48-.71,7.05,7.05,0,0,0-3.18-.15,12,12,0,0,0-3.25,1.08,12.43,12.43,0,0,0-2.86,1.94,9.32,9.32,0,0,0-2,2.46,4,4,0,0,0-.4,1.15,1.17,1.17,0,0,0,.9,1.42,3.5,3.5,0,0,0,1.44,0,8.09,8.09,0,0,0,1.65-.48,8.35,8.35,0,0,0,1.69-.91,6.54,6.54,0,0,0,1.35-1.27,3,3,0,0,0,.62-1.59c0-.12,0-.19,0-.21a.14.14,0,0,1,0-.13.24.24,0,0,1,.13-.23.39.39,0,0,1,.26,0,.7.7,0,0,1,.24.13.21.21,0,0,1,.08.21A3.86,3.86,0,0,1,77,46.1a6,6,0,0,1-1.47,1.42,7.87,7.87,0,0,1-1.87,1,8.79,8.79,0,0,1-2,.46,4.31,4.31,0,0,1-1.62-.08,1.4,1.4,0,0,1-.85-.61,1.53,1.53,0,0,1-.15-1A4,4,0,0,1,69.55,46a10.36,10.36,0,0,1,2.06-2.55,12.77,12.77,0,0,1,2.91-2,12.1,12.1,0,0,1,3.33-1.07,7.93,7.93,0,0,1,3.3.12,6.7,6.7,0,0,1,1.72.7,5.68,5.68,0,0,1,1.25,1A18.55,18.55,0,0,1,87.68,40.46ZM84,43.28a.61.61,0,0,1-.07-.14.42.42,0,0,0-.06-.14c-.7.58-1.43,1.24-2.19,2s-1.52,1.55-2.3,2.4S77.86,49.12,77.08,50l-2.31,2.64c-.75.86-1.5,1.69-2.22,2.48s-1.41,1.51-2.07,2.14a6.54,6.54,0,0,0,1,.26c.33.06.67.11,1,.14a7.7,7.7,0,0,0,3.59-.43,12,12,0,0,0,3.23-1.81,13.47,13.47,0,0,0,2.64-2.74,15,15,0,0,0,1.82-3.24,10.33,10.33,0,0,0,.77-3.29A5.93,5.93,0,0,0,84,43.28Z"/><path class="cls-1" d="M88.37,52.2c.07-.05.12-.06.15,0s0,.09-.06.13l0,.07a.24.24,0,0,0-.06.08l-.93.8c-.35.29-.71.59-1.08.88s-.75.58-1.13.85a7.62,7.62,0,0,1-1.11.67,2.09,2.09,0,0,1-1,.26.58.58,0,0,1-.49-.25.87.87,0,0,1-.09-.57,1.49,1.49,0,0,1,.29-.66c.22-.31.51-.67.86-1.09s.72-.83,1.11-1.25.76-.82,1.13-1.2l.94-.95,1.14,0c-.26.24-.6.58-1,1s-.88.9-1.33,1.39-.89,1-1.3,1.45a12.92,12.92,0,0,0-.9,1.18,1.5,1.5,0,0,0-.19.43c0,.1,0,.16.07.18a.44.44,0,0,0,.28,0,1.42,1.42,0,0,0,.39-.14,7.86,7.86,0,0,0,1.07-.63c.41-.27.81-.56,1.21-.87s.77-.61,1.12-.9l.81-.7a.19.19,0,0,1,.07-.06Zm.74-4.86a.51.51,0,0,1,.39.16.5.5,0,0,1,.16.39.49.49,0,0,1-.16.38.54.54,0,0,1-.39.14.55.55,0,0,1-.39-.14.53.53,0,0,1-.16-.38.53.53,0,0,1,.16-.39A.53.53,0,0,1,89.11,47.34Z"/><path class="cls-1" d="M92.65,52.2c.07-.05.12-.06.15,0s0,.09,0,.13l-.06.06a.3.3,0,0,1-.08.07,3.19,3.19,0,0,1-1.2.59q-.81.22-1.71.42a11.75,11.75,0,0,1-.88,1.33A6.15,6.15,0,0,1,87.62,56a1.45,1.45,0,0,1-1.1.29,1.07,1.07,0,0,1-.7-.48,1.13,1.13,0,0,1-.14-.84,1.27,1.27,0,0,1,.63-.82,3,3,0,0,1,1-.35c.44-.07.9-.16,1.39-.26a15.06,15.06,0,0,0,.8-1.42,11,11,0,0,1,.74-1.3l-.53.44-.57.48-.49.44-.31.29,0,0c-.06,0-.09,0-.12,0a.11.11,0,0,1,0-.12s0,0,.06,0l.67-.62c.31-.29.66-.59,1-.9s.78-.58,1.18-.83a2.64,2.64,0,0,1,1.09-.41v.13a2.17,2.17,0,0,0-.81.56,3.67,3.67,0,0,0-.59.82,9.88,9.88,0,0,0-.51,1c-.16.37-.35.77-.58,1.19a15.85,15.85,0,0,0,1.64-.39,2.79,2.79,0,0,0,1.12-.58l.06-.05Zm-5.56,3.25a6.83,6.83,0,0,0,.85-.85,8.17,8.17,0,0,0,.69-.92q-.67.15-1.29.24a2.25,2.25,0,0,0-1,.33,1.06,1.06,0,0,0-.52.62.87.87,0,0,0,0,.62.49.49,0,0,0,.44.29A1.05,1.05,0,0,0,87.09,55.45Z"/><path class="cls-1" d="M99.53,48.06a.48.48,0,0,1-.32.51,2.37,2.37,0,0,1-.85.19,6.21,6.21,0,0,1-1,0c-.37,0-.68-.07-.94-.11L95,50.35l-1.34,1.72-1.13,1.46c-.33.44-.56.76-.7,1a1.66,1.66,0,0,0-.43.83.33.33,0,0,0,.22.37,1,1,0,0,0,.63,0,3,3,0,0,0,.78-.35,10.2,10.2,0,0,0,1-.69c.36-.28.72-.57,1.07-.87l1-.82c.29-.25.52-.45.68-.61l.08-.06.09-.07c.06-.05.1-.06.14,0s0,.09,0,.13l-.08.07-.07.08-.81.71-.94.82c-.32.28-.65.56-1,.83s-.68.49-1,.69a3.15,3.15,0,0,1-1.31.52,1.22,1.22,0,0,1-.88-.2.84.84,0,0,1-.23-.77,2.59,2.59,0,0,1,.61-1.21c.16-.2.38-.49.67-.89l1-1.32,1.18-1.56c.42-.55.82-1.08,1.22-1.58a13.26,13.26,0,0,0-1.57-.11,3.63,3.63,0,0,0-1.53.4c-.2.1-.31.1-.35,0s0-.18.14-.22a4.37,4.37,0,0,1,1.69-.31,17,17,0,0,1,1.7.12c.45-.56.84-1,1.18-1.46s.58-.7.74-.85h1.11a10.6,10.6,0,0,0-.78.88L96.48,48.5l.86.09a5.94,5.94,0,0,0,.93,0,2.5,2.5,0,0,0,.74-.14.4.4,0,0,0,.27-.41c0-.13,0-.19.14-.19S99.55,47.94,99.53,48.06Z"/><path class="cls-1" d="M100.61,52.2c.07-.05.11-.06.14,0s0,.09-.06.13a.18.18,0,0,1,0,.07.22.22,0,0,0,0,.08c-.29.24-.6.5-.94.8s-.7.59-1.08.88-.75.58-1.13.85a7.62,7.62,0,0,1-1.11.67,2.06,2.06,0,0,1-1,.26.59.59,0,0,1-.49-.25.87.87,0,0,1-.09-.57,1.49,1.49,0,0,1,.29-.66c.22-.31.51-.67.86-1.09s.72-.83,1.11-1.25.76-.82,1.13-1.2l.94-.95,1.14,0c-.25.24-.6.58-1,1L97.9,52.33c-.46.49-.89,1-1.29,1.45A11.65,11.65,0,0,0,95.7,55a1.86,1.86,0,0,0-.19.43c0,.1,0,.16.07.18a.44.44,0,0,0,.28,0,1.42,1.42,0,0,0,.39-.14,7.3,7.3,0,0,0,1.07-.63c.41-.27.81-.56,1.21-.87s.77-.61,1.12-.9l.81-.7.07-.06Zm.73-4.86a.55.55,0,0,1,.55.55.49.49,0,0,1-.16.38.52.52,0,0,1-.39.14.55.55,0,0,1-.39-.14.52.52,0,0,1-.15-.38.53.53,0,0,1,.54-.55Z"/><path class="cls-1" d="M108.39,52.18s0,.09-.06.13l-.12.15-.93.8c-.34.29-.69.59-1.06.88s-.75.58-1.14.85a6.82,6.82,0,0,1-1.13.67,2,2,0,0,1-1,.26.58.58,0,0,1-.49-.25.81.81,0,0,1-.08-.57,1.47,1.47,0,0,1,.28-.66,8.69,8.69,0,0,1,.73-.94c.26-.29.51-.57.77-.84l.74-.82c.25-.28.48-.57.71-.88a1.21,1.21,0,0,0,.22-.42c0-.1,0-.16-.06-.19a.54.54,0,0,0-.29,0,2.3,2.3,0,0,0-.42.12A7.11,7.11,0,0,0,104,51c-.43.25-.87.52-1.31.82s-.87.62-1.28.93-.76.6-1,.85L98.27,56h-1l5.39-6h1l-2.42,2.74c.56-.44,1.18-.89,1.87-1.35a13.45,13.45,0,0,1,2-1.11,2,2,0,0,1,1-.2.58.58,0,0,1,.47.28.72.72,0,0,1,0,.57,1.84,1.84,0,0,1-.31.65,18.1,18.1,0,0,1-1.51,1.66,9.91,9.91,0,0,0-1.4,1.77,1.34,1.34,0,0,0-.2.43c0,.1,0,.16.09.18a.41.41,0,0,0,.27,0,1.42,1.42,0,0,0,.39-.14A6.81,6.81,0,0,0,105,54.8c.41-.27.81-.56,1.21-.87s.78-.61,1.12-.9l.81-.7.15-.13C108.3,52.15,108.35,52.14,108.39,52.18Z"/><path class="cls-1" d="M113.89,52.29a.15.15,0,0,0,.11-.09c.07-.05.12-.06.15,0s0,.09-.05.13l-.1.11-1,.88c-.4.34-.82.67-1.26,1a13.4,13.4,0,0,1-1.33.89,5.11,5.11,0,0,1-1.23.57,3,3,0,0,1-1.12.17,1.35,1.35,0,0,1-.86-.29,1,1,0,0,1-.29-.85,3.39,3.39,0,0,1,.57-1.49,7,7,0,0,1,.72-1,11.7,11.7,0,0,1,.91-.95,8.63,8.63,0,0,1,1-.78,4.6,4.6,0,0,1,.9-.5,1.44,1.44,0,0,1,1.15,0,1.08,1.08,0,0,1,.59,1.49,1.29,1.29,0,0,1-.85.66.36.36,0,0,1-.32,0,.37.37,0,0,1-.21-.17.24.24,0,0,1,0-.22.37.37,0,0,1,.23-.18,1.78,1.78,0,0,0,.85-.44.55.55,0,0,0,.22-.48c0-.14-.15-.23-.36-.25a1.74,1.74,0,0,0-.9.23,5.4,5.4,0,0,0-.81.54,9.62,9.62,0,0,0-.91.82,11,11,0,0,0-.87.94,8.85,8.85,0,0,0-.67.94,2.18,2.18,0,0,0-.38,1,.65.65,0,0,0,.16.53.77.77,0,0,0,.5.21,1.64,1.64,0,0,0,.66-.05,4.76,4.76,0,0,0,1.26-.5,14.62,14.62,0,0,0,1.35-.87c.44-.32.86-.65,1.26-1Z"/><path class="cls-1" d="M120.92,48.06a.48.48,0,0,1-.32.51,2.37,2.37,0,0,1-.85.19,6.21,6.21,0,0,1-1,0c-.37,0-.68-.07-.94-.11l-1.35,1.72-1.34,1.72-1.13,1.46c-.33.44-.56.76-.7,1a1.66,1.66,0,0,0-.43.83.33.33,0,0,0,.22.37,1,1,0,0,0,.63,0,3,3,0,0,0,.78-.35,10.2,10.2,0,0,0,1-.69c.36-.28.72-.57,1.07-.87l1-.82c.29-.25.52-.45.68-.61l.08-.06.09-.07c.06-.05.1-.06.14,0s0,.09,0,.13l-.08.07-.07.08-.81.71-.94.82c-.32.28-.65.56-1,.83s-.68.49-1,.69a3.15,3.15,0,0,1-1.31.52,1.22,1.22,0,0,1-.88-.2.84.84,0,0,1-.23-.77,2.59,2.59,0,0,1,.61-1.21c.16-.2.38-.49.67-.89l1-1.32,1.19-1.56c.41-.55.81-1.08,1.21-1.58a13.26,13.26,0,0,0-1.57-.11,3.63,3.63,0,0,0-1.53.4c-.2.1-.31.1-.35,0s0-.18.14-.22a4.42,4.42,0,0,1,1.7-.31c.54,0,1.1,0,1.69.12.45-.56.84-1,1.18-1.46s.58-.7.74-.85h1.11a10.6,10.6,0,0,0-.78.88l-1.26,1.56.86.09a5.94,5.94,0,0,0,.93,0,2.5,2.5,0,0,0,.74-.14.4.4,0,0,0,.27-.41c0-.13,0-.19.14-.19S120.94,47.94,120.92,48.06Z"/><path class="cls-1" d="M122,52.2c.07-.05.11-.06.14,0s0,.09-.06.13a.18.18,0,0,1,0,.07.22.22,0,0,0,0,.08c-.29.24-.6.5-.94.8s-.7.59-1.08.88-.75.58-1.13.85a7.62,7.62,0,0,1-1.11.67,2.06,2.06,0,0,1-1,.26.59.59,0,0,1-.49-.25.87.87,0,0,1-.09-.57,1.49,1.49,0,0,1,.29-.66c.22-.31.51-.67.86-1.09s.72-.83,1.11-1.25.76-.82,1.13-1.2l.94-.95,1.14,0c-.25.24-.6.58-1,1l-1.33,1.39c-.46.49-.89,1-1.29,1.45a11.65,11.65,0,0,0-.91,1.18,1.86,1.86,0,0,0-.19.43c0,.1,0,.16.07.18a.44.44,0,0,0,.28,0,1.42,1.42,0,0,0,.39-.14,7.3,7.3,0,0,0,1.07-.63c.41-.27.81-.56,1.21-.87s.77-.61,1.12-.9l.81-.7.07-.06Zm.73-4.86a.55.55,0,0,1,.55.55.49.49,0,0,1-.16.38.52.52,0,0,1-.39.14.55.55,0,0,1-.39-.14.52.52,0,0,1-.15-.38.53.53,0,0,1,.54-.55Z"/><path class="cls-1" d="M128.19,52.2c0-.05.07-.06.1,0a.09.09,0,0,1,0,.13,2.28,2.28,0,0,1-.27.23,3,3,0,0,1-1.32.68.82.82,0,0,1-.81-.3c-.28.28-.59.56-.92.83s-.66.53-1,.77-.64.45-.93.64a5.89,5.89,0,0,1-.76.43,3.85,3.85,0,0,1-.41.14,1.59,1.59,0,0,1-.48.07,1.25,1.25,0,0,1-.43-.07.49.49,0,0,1-.28-.3,1.43,1.43,0,0,1,0-.83,6.37,6.37,0,0,1,.47-1.07c.2-.38.43-.76.69-1.16s.52-.76.77-1.09.48-.63.68-.87.34-.39.41-.48h1.14a3.48,3.48,0,0,0-.35.37c-.17.2-.38.45-.61.74s-.48.6-.75,1-.51.71-.74,1.06a11.12,11.12,0,0,0-.6,1,2.9,2.9,0,0,0-.32.82c-.07.24-.05.4.07.48a.49.49,0,0,0,.48,0,2.69,2.69,0,0,0,.77-.32c.3-.18.62-.38,1-.62s.67-.51,1-.79.66-.57,1-.86a1.77,1.77,0,0,1-.16-1.08,2.11,2.11,0,0,1,.4-1,1.55,1.55,0,0,1,.7-.58,1,1,0,0,1,.7,0,.47.47,0,0,1,.3.47,1.67,1.67,0,0,1-.46,1,5.42,5.42,0,0,1-.6.67l-.62.61a.61.61,0,0,0,.66.28,2.53,2.53,0,0,0,1.23-.65l.13-.11A.58.58,0,0,1,128.19,52.2Zm-1.77-1.26a2.73,2.73,0,0,0-.44,1,1.85,1.85,0,0,0,0,.73l.61-.61a4.47,4.47,0,0,0,.55-.64,1.44,1.44,0,0,0,.37-.68c0-.18,0-.29-.12-.34a.46.46,0,0,0-.41.06A1.51,1.51,0,0,0,126.42,50.94Z"/><path class="cls-1" d="M133.55,52.2c.07-.05.13-.06.16,0s0,.09,0,.13l-.13.11c-.32.29-.68.61-1.07.94s-.8.67-1.23,1a12.56,12.56,0,0,1-1.3.85,5.3,5.3,0,0,1-1.28.57,3.85,3.85,0,0,1-1,.16,1.2,1.2,0,0,1-.74-.18.75.75,0,0,1-.29-.63,2.83,2.83,0,0,1,.34-1.2,6.46,6.46,0,0,1,.83-1.29A10.79,10.79,0,0,1,129,51.35a8.28,8.28,0,0,1,1.25-1,2.65,2.65,0,0,1,1.11-.43,1,1,0,0,1,1,.38.94.94,0,0,1,.05.91,1.86,1.86,0,0,1-.65.71,4.81,4.81,0,0,1-1.05.58,6.21,6.21,0,0,1-1.18.37,3.86,3.86,0,0,1-1,.1c-.1.14-.23.35-.41.62a5.46,5.46,0,0,0-.43.77,1.8,1.8,0,0,0-.21.71.48.48,0,0,0,.14.38.58.58,0,0,0,.4.11,2.72,2.72,0,0,0,.55-.06,5.33,5.33,0,0,0,1.28-.51,12.68,12.68,0,0,0,1.31-.85c.44-.31.85-.64,1.25-1s.75-.63,1.07-.91l0,0Zm-2-1.64a2.77,2.77,0,0,0-.73.39c-.27.19-.55.4-.82.63s-.54.47-.78.7-.44.42-.58.56a3.18,3.18,0,0,0,.87-.11,6.47,6.47,0,0,0,1.13-.37,5.47,5.47,0,0,0,1-.55,1.27,1.27,0,0,0,.56-.66.53.53,0,0,0-.05-.51C132.09,50.49,131.88,50.46,131.58,50.56Z"/><path class="cls-1" d="M154.65,42.52a1.24,1.24,0,0,1,.71.38.85.85,0,0,1,.17.64,1.59,1.59,0,0,1-.37.8,3.72,3.72,0,0,1-1,.83,10.07,10.07,0,0,1-1.37.74c-.53.24-1.12.47-1.75.69s-1.36.4-2.07.57a17.87,17.87,0,0,1-2.1.38c-.32,0-.63.05-.92.05a8.35,8.35,0,0,1-.87,0,26.17,26.17,0,0,0-2,2.12,21.38,21.38,0,0,0-1.6,2.2,14,14,0,0,0-1.1,2.14A5.68,5.68,0,0,0,140,56a3,3,0,0,0,.1,1,2.06,2.06,0,0,0,.4.78,1.74,1.74,0,0,0,.7.51,2.14,2.14,0,0,0,1,.11,6.08,6.08,0,0,0,2.35-.77A21.39,21.39,0,0,0,147.12,56c.87-.62,1.68-1.26,2.46-1.92s1.43-1.24,2-1.7l.12-.1c.07-.07.12-.09.16,0s0,.09-.05.13l-.13.15c-.63.54-1.32,1.15-2.06,1.81s-1.52,1.29-2.32,1.9a19,19,0,0,1-2.47,1.61,8,8,0,0,1-2.54.91,3.47,3.47,0,0,1-1.48,0,2.53,2.53,0,0,1-1.07-.55,2.17,2.17,0,0,1-.61-.94A2.75,2.75,0,0,1,139,56a6.65,6.65,0,0,1,.48-2,13.52,13.52,0,0,1,1.11-2.17,19,19,0,0,1,1.58-2.18,24,24,0,0,1,2-2.08,3,3,0,0,1-1.69-.91,1.67,1.67,0,0,1-.4-1.37,2.45,2.45,0,0,1,.86-1.42,5.22,5.22,0,0,1,2.12-1.1,6.32,6.32,0,0,1,2.62-.25,8.36,8.36,0,0,1,2.51.69,12.22,12.22,0,0,1,2.37-.68A5.69,5.69,0,0,1,154.65,42.52Zm-9.56.48a4.24,4.24,0,0,0-1.6,1.06,2.1,2.1,0,0,0-.57,1.21,1.56,1.56,0,0,0,.37,1.11,2.49,2.49,0,0,0,1.21.79c.87-.8,1.75-1.54,2.63-2.22a13.22,13.22,0,0,1,2.78-1.65,8,8,0,0,0-2.44-.65A4.72,4.72,0,0,0,145.09,43Zm9,2c.76-.49,1.18-1,1.25-1.4s-.14-.72-.66-.85a4.45,4.45,0,0,0-1.81,0,9.16,9.16,0,0,0-2.08.74l.71.48a7.28,7.28,0,0,1,.7.57s0,.08,0,.16-.12.1-.14.07a.26.26,0,0,1-.07-.13.27.27,0,0,0-.12-.18c-.2-.16-.4-.3-.6-.44a6.24,6.24,0,0,0-.67-.4A16.65,16.65,0,0,0,148,45.2a26.2,26.2,0,0,0-2.52,2.12,4,4,0,0,0,.7,0,7.7,7.7,0,0,0,.79-.07,16.29,16.29,0,0,0,2-.35q1-.24,2-.54a16.18,16.18,0,0,0,1.76-.68A10.35,10.35,0,0,0,154.06,45Z"/><path class="cls-1" d="M161.18,42a2.24,2.24,0,0,1,1-.27,1,1,0,0,1,.71.23.91.91,0,0,1,.3.65,1.76,1.76,0,0,1-.25.95,6.6,6.6,0,0,1-1,1.34,18.46,18.46,0,0,1-1.55,1.46c-.59.49-1.21,1-1.87,1.45s-1.3.92-1.92,1.33-1.21.77-1.74,1.1-1,.56-1.28.73l-1.08,1.41-1,1.29.94-.91c.34-.32.69-.63,1-.92s.71-.57,1.05-.83a5.53,5.53,0,0,1,.92-.56,2,2,0,0,1,1-.27.74.74,0,0,1,.55.26.71.71,0,0,1,.12.55,1.41,1.41,0,0,1-.25.66,11.83,11.83,0,0,1-1.35,1.68A10.57,10.57,0,0,0,154.23,55a1.2,1.2,0,0,0-.2.42c0,.09,0,.14.08.16a.49.49,0,0,0,.28,0,3.09,3.09,0,0,0,.39-.17,6.33,6.33,0,0,0,1-.62c.37-.27.74-.56,1.1-.85s.7-.58,1-.87l.76-.67.15-.13c.07-.05.12-.06.15,0s0,.09-.07.13l-.12.15c-.28.24-.58.49-.89.77l-1,.84c-.33.29-.67.56-1,.82a8.88,8.88,0,0,1-1,.68,2.16,2.16,0,0,1-1,.31.59.59,0,0,1-.49-.22.77.77,0,0,1-.1-.56,1.71,1.71,0,0,1,.27-.66,6.6,6.6,0,0,1,.65-.85q.36-.39.72-.81l.69-.81a6.44,6.44,0,0,0,.61-.84.8.8,0,0,0,.18-.44.18.18,0,0,0-.14-.18.78.78,0,0,0-.33,0,3.09,3.09,0,0,0-.43.14,5.89,5.89,0,0,0-1.25.77c-.47.35-.93.73-1.39,1.13s-.87.79-1.25,1.17l-.84.86-.43.62-.39.48h-.87l1.4-1.93c.59-.79,1.23-1.65,1.94-2.57s1.46-1.86,2.24-2.83,1.57-1.88,2.34-2.73a30,30,0,0,1,2.23-2.26A9.4,9.4,0,0,1,161.18,42Zm1.58,1.48a1.32,1.32,0,0,0,.23-.76.44.44,0,0,0-.29-.36,1.21,1.21,0,0,0-.6,0,3.83,3.83,0,0,0-.73.27,8.65,8.65,0,0,0-1.57,1.22c-.6.55-1.23,1.2-1.9,1.93s-1.35,1.53-2.06,2.38-1.39,1.7-2.05,2.54c.35-.2.79-.46,1.31-.78s1.09-.69,1.68-1.1,1.19-.84,1.81-1.3,1.2-.93,1.74-1.4a18.14,18.14,0,0,0,1.47-1.39A7,7,0,0,0,162.76,43.47Z"/><path class="cls-1" d="M166.12,52.2c.06-.05.11-.06.14,0s0,.09,0,.13l-.07.07-.1.08-.91.8c-.33.29-.69.59-1.06.88s-.75.58-1.14.85a7.06,7.06,0,0,1-1.1.67,2.09,2.09,0,0,1-1,.26.58.58,0,0,1-.49-.25.76.76,0,0,1-.08-.57,1.51,1.51,0,0,1,.3-.66l.15-.24.21-.27a13,13,0,0,1-1.34,1,5.4,5.4,0,0,1-1.38.72,1.61,1.61,0,0,1-.89.07.44.44,0,0,1-.32-.37,1.28,1.28,0,0,1,.07-.65,5.56,5.56,0,0,1,.34-.76,8.57,8.57,0,0,1,.71-1.07,14.1,14.1,0,0,1,1-1.08,10.45,10.45,0,0,1,1.06-1,6.17,6.17,0,0,1,1-.69,2.13,2.13,0,0,1,.91-.24,1.13,1.13,0,0,1,.68.22,1,1,0,0,1,.35.57,1.25,1.25,0,0,1-.05.78c.24-.24.45-.46.64-.67s.38-.4.56-.57l1.14,0-1,1c-.4.4-.8.82-1.21,1.26s-.8.88-1.17,1.33a8.5,8.5,0,0,0-.83,1.12,1.22,1.22,0,0,0-.21.43c0,.1,0,.16.07.18a.44.44,0,0,0,.28,0,2,2,0,0,0,.41-.14,7.86,7.86,0,0,0,1.07-.63c.41-.27.81-.56,1.21-.87s.77-.61,1.12-.9l.79-.7a.19.19,0,0,1,.07-.06Zm-7.83,3.12a1.91,1.91,0,0,0,.77-.25,8.36,8.36,0,0,0,.87-.55c.3-.21.58-.43.86-.67l.72-.63c.19-.23.38-.45.59-.67s.42-.44.61-.66a1.76,1.76,0,0,0,.26-.72.68.68,0,0,0-.14-.49.58.58,0,0,0-.48-.16,1.88,1.88,0,0,0-.77.27,5.73,5.73,0,0,0-.94.69c-.33.29-.65.59-1,.91s-.61.66-.88,1a9,9,0,0,0-.67.94,2.44,2.44,0,0,0-.15.32,1.21,1.21,0,0,0-.09.35.38.38,0,0,0,.08.27C158,55.33,158.12,55.35,158.29,55.32Z"/><path class="cls-1" d="M170.84,52.2c.07-.05.12-.06.15,0s0,.09,0,.13l-.08.07-.07.08-.78.62c-.35.27-.74.56-1.16.86l-1.28.9c-.44.29-.81.53-1.12.71a2.39,2.39,0,0,1-.68.27.88.88,0,0,1-.5,0,.38.38,0,0,1-.23-.29.78.78,0,0,1,.13-.53,4.28,4.28,0,0,1,.53-.77c.24-.27.49-.54.76-.82l.82-.79a8.94,8.94,0,0,0,.69-.69.87.87,0,0,0,.28-.74,1.76,1.76,0,0,0-.28-.61,12.29,12.29,0,0,1-1,1.05l-.89.85a.05.05,0,0,1,0,0,0,0,0,0,0,0,0,.07.07,0,0,1-.1,0,.13.13,0,0,1,0-.12l.09,0c.24-.21.53-.49.88-.83a12,12,0,0,0,1-1.07,3.74,3.74,0,0,1-.33-.63,1.06,1.06,0,0,1,0-.82.88.88,0,0,1,.94-.6.53.53,0,0,1,.37.33,1,1,0,0,1-.11.78l0,0,0,0a3,3,0,0,1-.27.43,3.71,3.71,0,0,1-.39.47,2.36,2.36,0,0,0,.33.42,1.81,1.81,0,0,1,.29.41,1,1,0,0,1,.12.48,1.06,1.06,0,0,1-.21.57.71.71,0,0,0-.19.18,2.6,2.6,0,0,0-.19.22c-.18.15-.39.34-.63.58s-.47.47-.71.71-.44.49-.63.72a4,4,0,0,0-.41.58c-.08.14-.09.22,0,.26s.25,0,.53-.18l1.09-.69c.45-.3.9-.6,1.35-.92l1.21-.86a7.78,7.78,0,0,0,.68-.52l.07-.06Zm-2.78-3.09a1.17,1.17,0,0,0,0,1.12,3.37,3.37,0,0,0,.59-.83,1.43,1.43,0,0,0,.15-.59q0-.18-.15-.21a.41.41,0,0,0-.29.12A.89.89,0,0,0,168.06,49.11Z"/><path class="cls-1" d="M178.19,52.2c.05-.05.1-.06.14,0s0,.09-.06.13l-.07.07a.49.49,0,0,1-.1.08l-.9.8c-.34.29-.69.59-1.06.88s-.76.58-1.14.85a7.62,7.62,0,0,1-1.11.67,2.06,2.06,0,0,1-1,.26.59.59,0,0,1-.49-.25.76.76,0,0,1-.07-.57,1.61,1.61,0,0,1,.29-.66c0-.07.1-.15.16-.24l.2-.27a12,12,0,0,1-1.34,1,5.1,5.1,0,0,1-1.38.72,1.57,1.57,0,0,1-.88.07.46.46,0,0,1-.33-.37,1.3,1.3,0,0,1,.08-.65,4.49,4.49,0,0,1,.33-.76,8.73,8.73,0,0,1,.72-1.07,10.79,10.79,0,0,1,.95-1.08,9.38,9.38,0,0,1,1.05-1,6.61,6.61,0,0,1,1-.69,2.17,2.17,0,0,1,.92-.24,1.12,1.12,0,0,1,.67.22,1.06,1.06,0,0,1,.36.57,1.33,1.33,0,0,1-.06.78c.24-.24.46-.46.65-.67a7.59,7.59,0,0,1,.56-.57l1.13,0-1,1c-.4.4-.8.82-1.21,1.26s-.79.88-1.17,1.33a8.5,8.5,0,0,0-.83,1.12,1.75,1.75,0,0,0-.21.43c0,.1,0,.16.08.18a.41.41,0,0,0,.27,0,1.66,1.66,0,0,0,.41-.14,6.81,6.81,0,0,0,1.07-.63c.41-.27.81-.56,1.21-.87s.78-.61,1.12-.9.61-.53.79-.7l.07-.06Zm-7.83,3.12a1.87,1.87,0,0,0,.76-.25,9.68,9.68,0,0,0,.88-.55c.29-.21.58-.43.85-.67l.73-.63c.18-.23.38-.45.59-.67l.61-.66a1.72,1.72,0,0,0,.25-.72.64.64,0,0,0-.14-.49.55.55,0,0,0-.48-.16,1.88,1.88,0,0,0-.77.27,6.19,6.19,0,0,0-.94.69c-.33.29-.65.59-1,.91s-.61.66-.88,1a10.51,10.51,0,0,0-.66.94,1.59,1.59,0,0,0-.16.32A.93.93,0,0,0,170,55a.34.34,0,0,0,.07.27A.38.38,0,0,0,170.36,55.32Z"/><path class="cls-1" d="M183.83,52.29a.15.15,0,0,0,.11-.09c.07-.05.12-.06.15,0s0,.09-.05.13l-.1.11-1.05.88c-.4.34-.82.67-1.26,1a13.4,13.4,0,0,1-1.33.89,5.11,5.11,0,0,1-1.23.57,3,3,0,0,1-1.12.17,1.35,1.35,0,0,1-.86-.29,1,1,0,0,1-.29-.85,3.39,3.39,0,0,1,.57-1.49,7,7,0,0,1,.72-1,11.7,11.7,0,0,1,.91-.95,8.63,8.63,0,0,1,1-.78,4.6,4.6,0,0,1,.9-.5A1.44,1.44,0,0,1,182,50a1.08,1.08,0,0,1,.59,1.49,1.29,1.29,0,0,1-.85.66.36.36,0,0,1-.32,0,.37.37,0,0,1-.21-.17.24.24,0,0,1,0-.22.37.37,0,0,1,.23-.18,1.78,1.78,0,0,0,.85-.44.55.55,0,0,0,.22-.48c0-.14-.15-.23-.36-.25a1.74,1.74,0,0,0-.9.23,5.4,5.4,0,0,0-.81.54,11.1,11.1,0,0,0-.92.82c-.3.3-.59.61-.86.94a8.85,8.85,0,0,0-.67.94,2.18,2.18,0,0,0-.38,1,.62.62,0,0,0,.16.53.77.77,0,0,0,.5.21,1.64,1.64,0,0,0,.66-.05,4.76,4.76,0,0,0,1.26-.5,14.62,14.62,0,0,0,1.35-.87c.44-.32.86-.65,1.26-1Z"/><path class="cls-1" d="M190.86,48.06a.48.48,0,0,1-.32.51,2.37,2.37,0,0,1-.85.19,6.21,6.21,0,0,1-1.05,0c-.37,0-.68-.07-.94-.11l-1.35,1.72L185,52.07l-1.13,1.46c-.33.44-.56.76-.7,1a1.66,1.66,0,0,0-.43.83.33.33,0,0,0,.22.37,1,1,0,0,0,.63,0,3,3,0,0,0,.78-.35,10.2,10.2,0,0,0,1-.69c.36-.28.72-.57,1.07-.87l1-.82c.29-.25.52-.45.68-.61l.08-.06.09-.07c.06-.05.1-.06.14,0s0,.09,0,.13l-.08.07-.07.08-.81.71-.94.82c-.32.28-.65.56-1,.83s-.68.49-1,.69a3.15,3.15,0,0,1-1.31.52,1.22,1.22,0,0,1-.88-.2.84.84,0,0,1-.23-.77,2.59,2.59,0,0,1,.61-1.21l.68-.89c.29-.39.63-.83,1-1.32l1.19-1.56c.41-.55.81-1.08,1.21-1.58a13.26,13.26,0,0,0-1.57-.11,3.63,3.63,0,0,0-1.53.4c-.2.1-.31.1-.35,0s0-.18.14-.22a4.37,4.37,0,0,1,1.69-.31,17,17,0,0,1,1.7.12c.45-.56.84-1,1.18-1.46s.58-.7.74-.85h1.11a10.6,10.6,0,0,0-.78.88l-1.26,1.56.86.09a5.94,5.94,0,0,0,.93,0,2.5,2.5,0,0,0,.74-.14.4.4,0,0,0,.27-.41c0-.13,0-.19.14-.19S190.88,47.94,190.86,48.06Z"/><path class="cls-1" d="M193.64,52.2c.07-.05.12-.06.16,0a.09.09,0,0,1,0,.13l-.13.11c-.32.29-.68.61-1.07.94s-.81.67-1.23,1a12.56,12.56,0,0,1-1.3.85,5.3,5.3,0,0,1-1.28.57,3.85,3.85,0,0,1-1,.16,1.18,1.18,0,0,1-.74-.18.75.75,0,0,1-.29-.63,2.78,2.78,0,0,1,.33-1.2,7,7,0,0,1,.84-1.29,10.72,10.72,0,0,1,1.15-1.27,8.34,8.34,0,0,1,1.26-1,2.65,2.65,0,0,1,1.11-.43,1,1,0,0,1,1,.38.94.94,0,0,1,0,.91,1.75,1.75,0,0,1-.64.71,5.06,5.06,0,0,1-1.05.58,6.44,6.44,0,0,1-1.18.37,3.86,3.86,0,0,1-1,.1c-.1.14-.24.35-.41.62a4.61,4.61,0,0,0-.43.77,1.8,1.8,0,0,0-.21.71.47.47,0,0,0,.13.38.6.6,0,0,0,.4.11,2.81,2.81,0,0,0,.56-.06,5.5,5.5,0,0,0,1.28-.51,12.68,12.68,0,0,0,1.31-.85c.44-.31.85-.64,1.24-1s.75-.63,1.08-.91l0,0S193.61,52.23,193.64,52.2Zm-2-1.64a2.89,2.89,0,0,0-.72.39,9.43,9.43,0,0,0-.82.63c-.28.23-.54.47-.78.7s-.44.42-.58.56a3.18,3.18,0,0,0,.87-.11,6.47,6.47,0,0,0,1.13-.37,5.47,5.47,0,0,0,1-.55,1.27,1.27,0,0,0,.56-.66.51.51,0,0,0-.06-.51C192.18,50.49,192,50.46,191.66,50.56Z"/><path class="cls-1" d="M198.36,52.2c.07-.05.12-.06.14,0s0,.09,0,.13l-.07.07-.07.08-.78.62c-.35.27-.74.56-1.16.86l-1.29.9c-.43.29-.8.53-1.11.71a2.33,2.33,0,0,1-.69.27.86.86,0,0,1-.49,0,.37.37,0,0,1-.23-.29.82.82,0,0,1,.12-.53,5,5,0,0,1,.54-.77c.23-.27.49-.54.76-.82l.82-.79a8.65,8.65,0,0,0,.68-.69.89.89,0,0,0,.29-.74,1.79,1.79,0,0,0-.29-.61,9.78,9.78,0,0,1-1,1.05l-.88.85,0,0s0,0,0,0-.08,0-.1,0a.11.11,0,0,1,0-.12l.09,0c.24-.21.53-.49.88-.83a13.78,13.78,0,0,0,1-1.07,3.77,3.77,0,0,1-.34-.63,1.11,1.11,0,0,1,0-.82.88.88,0,0,1,1-.6.53.53,0,0,1,.37.33,1,1,0,0,1-.12.78l0,0,0,0a2.9,2.9,0,0,1-.26.43c-.11.15-.24.3-.39.47a2.36,2.36,0,0,0,.33.42,2.19,2.19,0,0,1,.29.41,1,1,0,0,1,.12.48,1.06,1.06,0,0,1-.21.57.59.59,0,0,0-.19.18,1.52,1.52,0,0,0-.19.22,7.51,7.51,0,0,0-.63.58l-.71.71q-.35.38-.63.72a3.36,3.36,0,0,0-.41.58c-.09.14-.09.22,0,.26s.24,0,.52-.18.65-.4,1.1-.69.9-.6,1.35-.92l1.21-.86c.36-.26.58-.43.68-.52l.06-.06Zm-2.78-3.09a1.14,1.14,0,0,0,0,1.12,3.66,3.66,0,0,0,.59-.83,1.24,1.24,0,0,0,.14-.59c0-.12-.06-.19-.14-.21a.42.42,0,0,0-.3.12A1,1,0,0,0,195.58,49.11Z"/><path class="cls-1" d="M209,1.13a2,2,0,0,0-2.8,0,1.91,1.91,0,0,0-.58,1.4,1.92,1.92,0,0,0,.57,1.41,1.93,1.93,0,0,0,1.41.59,1.89,1.89,0,0,0,1.4-.59,1.93,1.93,0,0,0,.59-1.41A1.92,1.92,0,0,0,209,1.13Zm-.19,2.62a1.65,1.65,0,0,1-1.21.51,1.62,1.62,0,0,1-1.21-.51,1.66,1.66,0,0,1-.5-1.21,1.66,1.66,0,0,1,.5-1.21,1.71,1.71,0,0,1,2.42,0,1.65,1.65,0,0,1,.49,1.21A1.65,1.65,0,0,1,208.85,3.75Z"/><path class="cls-1" d="M208.52,3.59a.54.54,0,0,1,0-.11V3.16a.59.59,0,0,0-.12-.34.49.49,0,0,0-.38-.21,1,1,0,0,0,.32-.11.48.48,0,0,0,.21-.43.54.54,0,0,0-.33-.55,1.76,1.76,0,0,0-.6-.08h-.76V3.62h.38V2.76h.3a1,1,0,0,1,.43.07.53.53,0,0,1,.21.5v.29h.36Zm-.59-1.15a.86.86,0,0,1-.36.05h-.35V1.7h.33a1,1,0,0,1,.46.08.34.34,0,0,1,.15.32A.34.34,0,0,1,207.93,2.44Z"/><path class="cls-1" d="M21.52,22.14l-.1.28a9.07,9.07,0,0,1-8.83,6.3C8,28.72,5.11,23.57,5.11,15.6c0-8.86,2.83-13.95,7.77-13.95,2.76,0,6.84,2,6.84,6.34v3h1.6V.64h-1.6V3.3a8.81,8.81,0,0,0-7-3.2C5.22.1,0,6.47,0,15.6,0,25,4.62,30.32,12.69,30.32A10.8,10.8,0,0,0,22.79,23l.06-.23ZM1.75,15.6c0-5.36,2.14-10.42,5.38-12.84C4.66,5.08,3.36,9.5,3.36,15.6c0,5.51,1.26,9.64,3.66,12C3.75,25.3,1.75,20.77,1.75,15.6Z"/><path class="cls-1" d="M46.69,28.07,36.67.19,36.61,0H35.42L24.8,28.07H22.93v1.55h6.2V28.07H26.58l3.35-8.92h8.75l3.16,8.92H39.49v1.55H49V28.07ZM30.49,17.6,34.42,7.08,38.14,17.6ZM43.57,28.07,35.27,4.88,36,3l9,25.08Z"/><path class="cls-1" d="M71.27,28.07l-6-11.34a9,9,0,0,0,5.28-8.64c0-4.9-3-7.5-8.63-7.5H50.65v1.6h1.78V28.07H50.65v1.55H59V28.07H57.15V16h2.61l7.17,13.59h6.13V28.07Zm-15.87,0H54.18V2.19H55.4Zm1.75-13.64V2.19l4.76,0c2.21,0,3.57,3.58,3.57,6.15a6,6,0,0,1-4.71,6.14ZM68.06,28.07,61.7,15.93c3.82-1.25,5.53-3.6,5.53-7.59,0-2.57-.52-4.41-1.57-5.6,2.3,1.15,3.18,2.69,3.18,5.35a7.71,7.71,0,0,1-5.52,7.78l-.12.07-.21.2L69.3,28.07Z"/><path class="cls-1" d="M104.44,2.14V.59H99l-8.81,22L81.39.77,81.32.59H75.26V2.14h2.18V28.07H75.26v1.55h6.2V28.07H79.19V7.9l8.92,22h1L97.6,8.7V28.07H95.83v1.55h8.61V28.07h-2.12V2.14ZM88.59,26.57,78.49,2.14H80.1l9.18,22.71Zm12,1.5H99.35V4.34l.85-2.2h.37Z"/><path class="cls-1" d="M126.76,23.13l-.94,4.94H115.06V14.8h7.4v3.06h1.6V10.18h-1.6v3.07h-7.4V2.14H125.2l1.38,4.95h1.61L126.57.59H108.18V2.14h2.17V28.07h-2.17v1.55h19.14l1.19-6.49Zm-13.44,4.94H112.1V2.14h1.22Z"/><path class="cls-1" d="M150.48.59V2.14h2.37V20.93L137.79.71l-.08-.12H131.9V2.14h2.17V28.07H131.9v1.55h6.29V28.07h-2.37V5.59L153.4,29.51l.09.11h1.11V2.14h2.17V.59Zm2.37,25.47L135.4,2.14h1.38l16.07,21.51Z"/><path class="cls-1" d="M179.09,23.13l-.94,4.94H167.4V14.8h7.39v3.06h1.6V10.18h-1.6v3.07H167.4V2.14h10.13l1.38,4.95h1.61L178.9.59H160.51V2.14h2.17V28.07h-2.17v1.55h19.15l1.19-6.49Zm-13.44,4.94h-1.22V2.14h1.22Z"/><path class="cls-1" d="M203.3.59H184.7L182.64,7h1.58l1.68-4.9h5.64V28.07h-2.17v1.55h9.06V28.07h-2.17V2.14h5.84L203.78,7h1.58Zm-8.79,27.48h-1.22V2.14h1.22Z"/></g></g></svg>